<svg width="154" height="20" viewBox="0 0 154 20" fill="none" xmlns="http://www.w3.org/2000/svg">
<path fill-rule="evenodd" clip-rule="evenodd" d="M9.87455 1.51799C5.25943 1.51799 1.51814 5.25928 1.51814 9.8744C1.51814 14.4895 5.25943 18.2308 9.87455 18.2308V19.7488C4.42109 19.7488 0.000183105 15.3279 0.000183105 9.8744C0.000183105 4.42094 4.42109 3.05176e-05 9.87455 3.05176e-05C15.328 3.05176e-05 19.7489 4.42094 19.7489 9.8744C19.7489 10.9256 19.5844 11.9399 19.2791 12.892L17.8336 12.4286C18.0915 11.6244 18.231 10.7664 18.231 9.8744C18.231 5.25928 14.4897 1.51799 9.87455 1.51799Z" fill="#222222"/>
<path fill-rule="evenodd" clip-rule="evenodd" d="M15.2285 9.87559C15.2285 6.91882 12.8315 4.52189 9.87476 4.52189V3.00394C13.6699 3.00394 16.7464 6.08048 16.7464 9.87559C16.7464 13.6707 13.6699 16.7472 9.87476 16.7472C6.07966 16.7472 3.00311 13.6707 3.00311 9.87559H4.52107C4.52107 12.8324 6.918 15.2293 9.87476 15.2293C12.8315 15.2293 15.2285 12.8324 15.2285 9.87559Z" fill="#222222"/>
<path fill-rule="evenodd" clip-rule="evenodd" d="M9.11542 7.08597H10.6334V10.0531L11.9071 11.3268L10.8337 12.4002L9.11542 10.6819V7.08597Z" fill="#222222"/>
<path d="M31.6165 6.70999H34.6239V4.60159H26.2844V6.70999H29.2918V15.1424H31.6165V6.70999Z" fill="#222222"/>
<path d="M41.0559 15.1463V4.6055H38.7307V15.1463H41.0559Z" fill="#222222"/>
<path d="M59.163 15.1424L57.1169 4.60159H54.3574L52.1715 11.9957L49.9708 4.60159H47.2113L45.1652 15.1424H47.7231L48.963 7.8723L51.0244 15.1424H53.3032L55.3652 7.8723L56.6051 15.1424H59.163Z" fill="#222222"/>
<path d="M69.3779 13.034H65.5959V10.9103H69.2233V8.80251H65.5959V6.70999H69.3779V4.60159H63.2707V15.1424H69.3779V13.034Z" fill="#222222"/>
<path d="M76.6653 11.3757H78.293C79.9977 11.3757 81.5173 10.12 81.5173 7.98101C81.5173 5.98133 79.9977 4.60159 78.293 4.60159H74.34V15.1424H76.6653V11.3757ZM77.9051 6.43086C78.5874 6.43086 79.3002 7.01966 79.3002 7.98101C79.3002 8.9882 78.5874 9.54644 77.9051 9.54644H76.6653V6.43086H77.9051Z" fill="#222222"/>
<path d="M88.1028 15.1424V4.60159H85.7775V15.1424H88.1028Z" fill="#222222"/>
<path d="M99.1699 13.034H95.3879V10.9103H99.0153V8.80251H95.3879V6.70999H99.1699V4.60159H93.0627V15.1424H99.1699V13.034Z" fill="#222222"/>
<path d="M111.742 11.5642C111.308 12.4944 110.254 13.1302 109.169 13.1302C107.464 13.1302 106.1 11.6729 106.1 9.87477C106.1 8.09192 107.464 6.61934 109.169 6.61934C110.238 6.61934 111.292 7.20873 111.727 8.15421H114.315C113.602 5.9994 111.572 4.44925 109.169 4.44925C106.177 4.44925 103.743 6.88318 103.743 9.87477C103.743 12.8664 106.177 15.3003 109.169 15.3003C111.572 15.3003 113.618 13.7343 114.331 11.5642H111.742Z" fill="#222222"/>
<path d="M124.857 13.034H121.075V10.9103H124.703V8.80251H121.075V6.70999H124.857V4.60159H118.75V15.1424H124.857V13.034Z" fill="#222222"/>
<path d="M129.694 13.9504C129.694 14.6944 130.298 15.299 131.057 15.299C131.801 15.299 132.422 14.6944 132.422 13.9504C132.422 13.1906 131.801 12.586 131.057 12.586C130.298 12.586 129.694 13.1906 129.694 13.9504Z" fill="#222222"/>
<path d="M142.994 11.1158H140.328L141.662 7.36439L142.994 11.1158ZM146.932 15.1463L142.653 4.6055H140.685L136.406 15.1463H138.902L139.662 13.0226H143.677L144.436 15.1463H146.932Z" fill="#222222"/>
<path d="M153.365 15.1463V4.6055H151.04V15.1463H153.365Z" fill="#222222"/>
</svg>
